<svg width="94" height="99" viewBox="0 0 94 99" fill="none" xmlns="http://www.w3.org/2000/svg">
<path d="M20.752 98.632C20.752 97.48 20.624 96.968 20.112 96.968L17.168 98.376C17.168 97.736 16.784 97.352 16.144 97.096L15.12 96.968C14.224 96.968 13.84 97.096 12.56 97.864C12.176 97.096 11.664 96.2 11.28 95.432C7.952 89.032 4.496 79.432 2.96 75.208C2.192 73.032 1.424 68.552 0.528 61.768C1.552 62.408 2.32 62.664 2.704 62.664C3.216 62.664 3.856 61.768 4.368 59.976C4.624 60.36 5.136 60.488 5.776 60.488C6.16 60.488 6.672 60.36 6.928 59.976L8.976 56.904L11.28 57.672H11.408C11.664 57.672 12.048 57.288 12.688 56.904C13.328 56.52 13.84 56.264 14.224 56.264L14.608 56.392C16.656 57.416 18.064 59.208 18.704 62.024C20.24 68.552 21.648 71.752 23.312 71.752C24.72 71.752 26.64 70.088 28.688 66.888C30.736 63.688 32.784 59.336 35.088 54.088C35.216 55.112 35.344 55.624 35.6 55.624C36.368 55.624 38.288 51.144 43.024 43.592C50.064 32.2 67.472 10.312 71.952 7.24C75.28 4.936 77.84 2.75999 79.632 0.839996C79.376 2.12 79.12 3.016 79.12 3.39999C79.12 3.784 79.376 3.91199 79.632 3.91199L83.216 2.12V2.632C83.216 3.272 83.344 3.656 83.728 3.656C84.24 3.656 86.288 1.60799 86.544 0.839996L86.288 2.632L90.64 0.0719986L89.616 2.376C90.896 1.48 91.92 0.967995 92.56 0.967995C93.2 0.967995 93.584 1.992 93.584 2.632C93.584 3.656 92.688 5.064 91.28 6.856C89.744 8.904 85.904 12.872 74.384 26.056C69.392 31.688 47.248 61.768 43.024 68.936L35.088 82.376C31.632 88.136 29.456 91.848 28.304 93.256C27.152 94.664 25.744 96.072 24.08 97.352L22.928 96.712L21.904 97.352L20.752 98.632Z" fill="#20cd8d"/>
</svg>
