<svg width="274" height="50" viewBox="0 0 274 50" fill="none" xmlns="http://www.w3.org/2000/svg">
<path d="M22.375 49H12.6875V11.375H0.28125V3.3125H34.7812V11.375H22.375V49ZM46.4688 31.4688C46.4688 34.9271 47.0312 37.5417 48.1562 39.3125C49.3021 41.0833 51.1562 41.9688 53.7188 41.9688C56.2604 41.9688 58.0833 41.0938 59.1875 39.3438C60.3125 37.5729 60.875 34.9479 60.875 31.4688C60.875 28.0104 60.3125 25.4167 59.1875 23.6875C58.0625 21.9583 56.2188 21.0938 53.6562 21.0938C51.1146 21.0938 49.2812 21.9583 48.1562 23.6875C47.0312 25.3958 46.4688 27.9896 46.4688 31.4688ZM70.625 31.4688C70.625 37.1562 69.125 41.6042 66.125 44.8125C63.125 48.0208 58.9479 49.625 53.5938 49.625C50.2396 49.625 47.2812 48.8958 44.7188 47.4375C42.1562 45.9583 40.1875 43.8438 38.8125 41.0938C37.4375 38.3438 36.75 35.1354 36.75 31.4688C36.75 25.7604 38.2396 21.3229 41.2188 18.1562C44.1979 14.9896 48.3854 13.4062 53.7812 13.4062C57.1354 13.4062 60.0938 14.1354 62.6562 15.5938C65.2188 17.0521 67.1875 19.1458 68.5625 21.875C69.9375 24.6042 70.625 27.8021 70.625 31.4688ZM117.156 25.7188C117.156 33.2396 115.01 39 110.719 43C106.448 47 100.271 49 92.1875 49H79.25V3.3125H93.5938C101.052 3.3125 106.844 5.28125 110.969 9.21875C115.094 13.1562 117.156 18.6562 117.156 25.7188ZM107.094 25.9688C107.094 16.1562 102.76 11.25 94.0938 11.25H88.9375V41H93.0938C102.427 41 107.094 35.9896 107.094 25.9688ZM133.469 31.4688C133.469 34.9271 134.031 37.5417 135.156 39.3125C136.302 41.0833 138.156 41.9688 140.719 41.9688C143.26 41.9688 145.083 41.0938 146.188 39.3438C147.312 37.5729 147.875 34.9479 147.875 31.4688C147.875 28.0104 147.312 25.4167 146.188 23.6875C145.062 21.9583 143.219 21.0938 140.656 21.0938C138.115 21.0938 136.281 21.9583 135.156 23.6875C134.031 25.3958 133.469 27.9896 133.469 31.4688ZM157.625 31.4688C157.625 37.1562 156.125 41.6042 153.125 44.8125C150.125 48.0208 145.948 49.625 140.594 49.625C137.24 49.625 134.281 48.8958 131.719 47.4375C129.156 45.9583 127.188 43.8438 125.812 41.0938C124.438 38.3438 123.75 35.1354 123.75 31.4688C123.75 25.7604 125.24 21.3229 128.219 18.1562C131.198 14.9896 135.385 13.4062 140.781 13.4062C144.135 13.4062 147.094 14.1354 149.656 15.5938C152.219 17.0521 154.188 19.1458 155.562 21.875C156.938 24.6042 157.625 27.8021 157.625 31.4688ZM166.25 49V3.3125H175.938V41H194.469V49H166.25ZM201.281 5.03125C201.281 1.92708 203.01 0.375 206.469 0.375C209.927 0.375 211.656 1.92708 211.656 5.03125C211.656 6.51042 211.219 7.66667 210.344 8.5C209.49 9.3125 208.198 9.71875 206.469 9.71875C203.01 9.71875 201.281 8.15625 201.281 5.03125ZM211.219 49H201.688V14.0625H211.219V49ZM245.625 38.625C245.625 42.2083 244.375 44.9375 241.875 46.8125C239.396 48.6875 235.677 49.625 230.719 49.625C228.177 49.625 226.01 49.4479 224.219 49.0938C222.427 48.7604 220.75 48.2604 219.188 47.5938V39.7188C220.958 40.5521 222.948 41.25 225.156 41.8125C227.385 42.375 229.344 42.6562 231.031 42.6562C234.49 42.6562 236.219 41.6562 236.219 39.6562C236.219 38.9062 235.99 38.3021 235.531 37.8438C235.073 37.3646 234.281 36.8333 233.156 36.25C232.031 35.6458 230.531 34.9479 228.656 34.1562C225.969 33.0312 223.99 31.9896 222.719 31.0312C221.469 30.0729 220.552 28.9792 219.969 27.75C219.406 26.5 219.125 24.9688 219.125 23.1562C219.125 20.0521 220.323 17.6562 222.719 15.9688C225.135 14.2604 228.552 13.4062 232.969 13.4062C237.177 13.4062 241.271 14.3229 245.25 16.1562L242.375 23.0312C240.625 22.2812 238.99 21.6667 237.469 21.1875C235.948 20.7083 234.396 20.4688 232.812 20.4688C230 20.4688 228.594 21.2292 228.594 22.75C228.594 23.6042 229.042 24.3438 229.938 24.9688C230.854 25.5938 232.844 26.5208 235.906 27.75C238.635 28.8542 240.635 29.8854 241.906 30.8438C243.177 31.8021 244.115 32.9062 244.719 34.1562C245.323 35.4062 245.625 36.8958 245.625 38.625ZM267.781 42.0312C269.448 42.0312 271.448 41.6667 273.781 40.9375V48.0312C271.406 49.0938 268.49 49.625 265.031 49.625C261.219 49.625 258.438 48.6667 256.688 46.75C254.958 44.8125 254.094 41.9167 254.094 38.0625V21.2188H249.531V17.1875L254.781 14L257.531 6.625H263.625V14.0625H273.406V21.2188H263.625V38.0625C263.625 39.4167 264 40.4167 264.75 41.0625C265.521 41.7083 266.531 42.0312 267.781 42.0312Z" fill="white"/>
</svg>
