<svg width="160" height="160" viewBox="0 0 160 160" fill="none" xmlns="http://www.w3.org/2000/svg">
<rect x="1" y="1" width="158" height="158" rx="21" fill="#172627" stroke="#20CD8D" stroke-width="2"/>
<mask id="path-2-outside-1_55_3" maskUnits="userSpaceOnUse" x="30" y="27" width="99" height="110" fill="black">
<rect fill="white" x="30" y="27" width="99" height="110"/>
<path d="M53.752 131.632C53.752 130.48 53.624 129.968 53.112 129.968L50.168 131.376C50.168 130.736 49.784 130.352 49.144 130.096L48.12 129.968C47.224 129.968 46.84 130.096 45.56 130.864C45.176 130.096 44.664 129.2 44.28 128.432C40.952 122.032 37.496 112.432 35.96 108.208C35.192 106.032 34.424 101.552 33.528 94.768C34.552 95.408 35.32 95.664 35.704 95.664C36.216 95.664 36.856 94.768 37.368 92.976C37.624 93.36 38.136 93.488 38.776 93.488C39.16 93.488 39.672 93.36 39.928 92.976L41.976 89.904L44.28 90.672H44.408C44.664 90.672 45.048 90.288 45.688 89.904C46.328 89.52 46.84 89.264 47.224 89.264L47.608 89.392C49.656 90.416 51.064 92.208 51.704 95.024C53.24 101.552 54.648 104.752 56.312 104.752C57.72 104.752 59.64 103.088 61.688 99.888C63.736 96.688 65.784 92.336 68.088 87.088C68.216 88.112 68.344 88.624 68.6 88.624C69.368 88.624 71.288 84.144 76.024 76.592C83.064 65.2 100.472 43.312 104.952 40.24C108.28 37.936 110.84 35.76 112.632 33.84C112.376 35.12 112.12 36.016 112.12 36.4C112.12 36.784 112.376 36.912 112.632 36.912L116.216 35.12V35.632C116.216 36.272 116.344 36.656 116.728 36.656C117.24 36.656 119.288 34.608 119.544 33.84L119.288 35.632L123.64 33.072L122.616 35.376C123.896 34.48 124.92 33.968 125.56 33.968C126.2 33.968 126.584 34.992 126.584 35.632C126.584 36.656 125.688 38.064 124.28 39.856C122.744 41.904 118.904 45.872 107.384 59.056C102.392 64.688 80.248 94.768 76.024 101.936L68.088 115.376C64.632 121.136 62.456 124.848 61.304 126.256C60.152 127.664 58.744 129.072 57.08 130.352L55.928 129.712L54.904 130.352L53.752 131.632Z"/>
</mask>
<path d="M53.752 131.632C53.752 130.48 53.624 129.968 53.112 129.968L50.168 131.376C50.168 130.736 49.784 130.352 49.144 130.096L48.12 129.968C47.224 129.968 46.84 130.096 45.56 130.864C45.176 130.096 44.664 129.2 44.28 128.432C40.952 122.032 37.496 112.432 35.96 108.208C35.192 106.032 34.424 101.552 33.528 94.768C34.552 95.408 35.32 95.664 35.704 95.664C36.216 95.664 36.856 94.768 37.368 92.976C37.624 93.36 38.136 93.488 38.776 93.488C39.16 93.488 39.672 93.36 39.928 92.976L41.976 89.904L44.28 90.672H44.408C44.664 90.672 45.048 90.288 45.688 89.904C46.328 89.52 46.84 89.264 47.224 89.264L47.608 89.392C49.656 90.416 51.064 92.208 51.704 95.024C53.24 101.552 54.648 104.752 56.312 104.752C57.72 104.752 59.64 103.088 61.688 99.888C63.736 96.688 65.784 92.336 68.088 87.088C68.216 88.112 68.344 88.624 68.6 88.624C69.368 88.624 71.288 84.144 76.024 76.592C83.064 65.2 100.472 43.312 104.952 40.24C108.28 37.936 110.84 35.76 112.632 33.84C112.376 35.12 112.12 36.016 112.12 36.4C112.12 36.784 112.376 36.912 112.632 36.912L116.216 35.12V35.632C116.216 36.272 116.344 36.656 116.728 36.656C117.24 36.656 119.288 34.608 119.544 33.84L119.288 35.632L123.64 33.072L122.616 35.376C123.896 34.48 124.92 33.968 125.56 33.968C126.2 33.968 126.584 34.992 126.584 35.632C126.584 36.656 125.688 38.064 124.28 39.856C122.744 41.904 118.904 45.872 107.384 59.056C102.392 64.688 80.248 94.768 76.024 101.936L68.088 115.376C64.632 121.136 62.456 124.848 61.304 126.256C60.152 127.664 58.744 129.072 57.08 130.352L55.928 129.712L54.904 130.352L53.752 131.632Z" fill="#20CD8D"/>
<path d="M53.752 131.632H51.752V136.844L55.2386 132.97L53.752 131.632ZM53.112 129.968V127.968H52.6583L52.2491 128.164L53.112 129.968ZM50.168 131.376H48.168V134.549L51.0309 133.18L50.168 131.376ZM49.144 130.096L49.8868 128.239L49.6476 128.143L49.3921 128.111L49.144 130.096ZM48.12 129.968L48.3681 127.983L48.2445 127.968H48.12V129.968ZM45.56 130.864L43.7711 131.758L44.737 133.69L46.589 132.579L45.56 130.864ZM44.28 128.432L46.0689 127.538L46.0618 127.523L46.0544 127.509L44.28 128.432ZM35.96 108.208L34.074 108.874L34.0772 108.883L34.0804 108.891L35.96 108.208ZM33.528 94.768L34.588 93.072L30.9896 90.823L31.5452 95.0299L33.528 94.768ZM37.368 92.976L39.0321 91.8666L36.6331 88.2681L35.445 92.4266L37.368 92.976ZM39.928 92.976L41.5921 94.0854L41.5921 94.0854L39.928 92.976ZM41.976 89.904L42.6085 88.0066L41.1593 87.5236L40.3119 88.7946L41.976 89.904ZM44.28 90.672L43.6475 92.5694L43.9554 92.672H44.28V90.672ZM45.688 89.904L46.717 91.619L46.717 91.619L45.688 89.904ZM47.224 89.264L47.8564 87.3666L47.5486 87.264H47.224V89.264ZM47.608 89.392L48.5024 87.6031L48.3753 87.5396L48.2404 87.4946L47.608 89.392ZM51.704 95.024L49.7537 95.4672L49.7554 95.4747L49.7572 95.4821L51.704 95.024ZM61.688 99.888L63.3725 100.966L63.3725 100.966L61.688 99.888ZM68.088 87.088L70.0726 86.8399L69.1728 79.6419L66.2567 86.284L68.088 87.088ZM76.024 76.592L77.7184 77.6546L77.7253 77.6434L76.024 76.592ZM104.952 40.24L106.083 41.8895L106.09 41.8844L104.952 40.24ZM112.632 33.84L114.593 34.2322L115.974 27.3281L111.17 32.4754L112.632 33.84ZM112.632 36.912V38.912H113.104L113.526 38.7008L112.632 36.912ZM116.216 35.12H118.216V31.8839L115.322 33.3311L116.216 35.12ZM119.544 33.84L121.524 34.1228L117.647 33.2075L119.544 33.84ZM119.288 35.632L117.308 35.3491L116.72 39.4627L120.302 37.3559L119.288 35.632ZM123.64 33.072L125.468 33.8843L128 28.1871L122.626 31.3481L123.64 33.072ZM122.616 35.376L120.788 34.5637L117.864 41.1438L123.763 37.0145L122.616 35.376ZM124.28 39.856L122.707 38.6204L122.693 38.638L122.68 38.656L124.28 39.856ZM107.384 59.056L108.881 60.3826L108.885 60.3773L108.89 60.372L107.384 59.056ZM76.024 101.936L77.7462 102.953L77.7471 102.951L76.024 101.936ZM68.088 115.376L69.803 116.405L69.8102 116.393L68.088 115.376ZM61.304 126.256L62.8519 127.522L61.304 126.256ZM57.08 130.352L56.1087 132.1L57.2577 132.739L58.2994 131.937L57.08 130.352ZM55.928 129.712L56.8993 127.964L55.8682 127.391L54.868 128.016L55.928 129.712ZM54.904 130.352L53.844 128.656L53.6055 128.805L53.4174 129.014L54.904 130.352ZM55.752 131.632C55.752 131.075 55.734 130.337 55.51 129.702C55.3836 129.344 55.1421 128.869 54.6636 128.493C54.1579 128.096 53.5912 127.968 53.112 127.968V131.968C52.8888 131.968 52.5301 131.904 52.1924 131.639C51.8819 131.395 51.7684 131.12 51.738 131.034C51.7095 130.953 51.7205 130.944 51.733 131.076C51.7445 131.196 51.752 131.374 51.752 131.632H55.752ZM52.2491 128.164L49.3051 129.572L51.0309 133.18L53.9749 131.772L52.2491 128.164ZM52.168 131.376C52.168 130.615 51.9243 129.893 51.4228 129.3C50.9592 128.752 50.3774 128.435 49.8868 128.239L48.4012 131.953C48.5506 132.013 48.4808 132.016 48.3692 131.884C48.3078 131.811 48.2509 131.717 48.2126 131.609C48.175 131.503 48.168 131.419 48.168 131.376H52.168ZM49.3921 128.111L48.3681 127.983L47.8719 131.953L48.8959 132.081L49.3921 128.111ZM48.12 127.968C47.5569 127.968 46.9889 128.009 46.327 128.239C45.7427 128.442 45.1683 128.767 44.531 129.149L46.589 132.579C47.2317 132.193 47.4893 132.07 47.641 132.017C47.7151 131.991 47.7871 131.968 48.12 131.968V127.968ZM47.3489 129.97C47.1407 129.553 46.9015 129.109 46.6809 128.7C46.4535 128.277 46.2447 127.889 46.0689 127.538L42.4911 129.326C42.6993 129.743 42.9385 130.187 43.1591 130.596C43.3865 131.019 43.5953 131.407 43.7711 131.758L47.3489 129.97ZM46.0544 127.509C42.8 121.251 39.3907 111.79 37.8396 107.525L34.0804 108.891C35.6013 113.074 39.1041 122.813 42.5056 129.355L46.0544 127.509ZM37.846 107.542C37.1618 105.604 36.4149 101.352 35.5108 94.5061L31.5452 95.0299C32.4331 101.752 33.2222 106.46 34.074 108.874L37.846 107.542ZM32.468 96.464C33.0646 96.8368 33.6234 97.1213 34.1272 97.3185C34.5891 97.4992 35.1479 97.664 35.704 97.664V93.664C35.8133 93.664 35.8569 93.6798 35.8117 93.669C35.7758 93.6604 35.7006 93.6388 35.5848 93.5935C35.3526 93.5026 35.0154 93.3392 34.588 93.072L32.468 96.464ZM35.704 97.664C36.4313 97.664 36.9957 97.3471 37.3574 97.0577C37.7217 96.7663 38.0023 96.4096 38.2184 96.0735C38.6515 95.3997 39.0058 94.5239 39.291 93.5254L35.445 92.4266C35.2182 93.2201 34.9965 93.6883 34.8536 93.9105C34.7817 94.0224 34.7743 94.0017 34.8586 93.9343C34.9403 93.8689 35.2327 93.664 35.704 93.664V97.664ZM35.7039 94.0854C36.5691 95.3832 38.0591 95.488 38.776 95.488V91.488C38.6804 91.488 38.6146 91.4831 38.5735 91.4779C38.5316 91.4726 38.5314 91.4689 38.5605 91.4786C38.5907 91.4887 38.6638 91.517 38.7553 91.5812C38.8509 91.6483 38.95 91.7435 39.0321 91.8666L35.7039 94.0854ZM38.776 95.488C39.4104 95.488 40.7815 95.3014 41.5921 94.0854L38.2639 91.8666C38.4266 91.6226 38.6215 91.5326 38.682 91.5093C38.7405 91.4868 38.766 91.488 38.776 91.488V95.488ZM41.5921 94.0854L43.6401 91.0134L40.3119 88.7946L38.2639 91.8666L41.5921 94.0854ZM41.3435 91.8014L43.6475 92.5694L44.9125 88.7746L42.6085 88.0066L41.3435 91.8014ZM44.28 92.672H44.408V88.672H44.28V92.672ZM44.408 92.672C44.9417 92.672 45.3512 92.4816 45.5378 92.3861C45.7457 92.2796 45.9297 92.1545 46.0424 92.0764C46.3218 91.8829 46.4715 91.7663 46.717 91.619L44.659 88.189C44.449 88.315 44.2664 88.4372 44.1156 88.5416C44.0409 88.5933 43.9715 88.6424 43.9134 88.6836C43.8521 88.727 43.8069 88.759 43.7656 88.7876C43.7248 88.8158 43.7011 88.8315 43.6877 88.8399C43.6736 88.8489 43.6847 88.8411 43.7143 88.8259C43.7422 88.8116 43.813 88.777 43.9175 88.7446C44.0224 88.712 44.192 88.672 44.408 88.672V92.672ZM46.717 91.619C47.0168 91.4391 47.2172 91.332 47.3536 91.2723C47.4176 91.2443 47.4403 91.239 47.4295 91.2419C47.42 91.2444 47.3457 91.264 47.224 91.264V87.264C46.625 87.264 46.1023 87.4537 45.7504 87.6077C45.3748 87.772 44.9992 87.9849 44.659 88.189L46.717 91.619ZM46.5916 91.1614L46.9756 91.2894L48.2404 87.4946L47.8564 87.3666L46.5916 91.1614ZM46.7136 91.1809C48.1558 91.902 49.2281 93.1543 49.7537 95.4672L53.6543 94.5808C52.8999 91.2617 51.1562 88.93 48.5024 87.6031L46.7136 91.1809ZM49.7572 95.4821C50.5309 98.7706 51.304 101.369 52.1467 103.18C52.5662 104.081 53.0585 104.912 53.6705 105.543C54.3011 106.193 55.1866 106.752 56.312 106.752V102.752C56.6054 102.752 56.6909 102.911 56.5415 102.757C56.3735 102.584 56.1058 102.207 55.7733 101.492C55.112 100.071 54.4131 97.8054 53.6508 94.5659L49.7572 95.4821ZM56.312 106.752C57.7571 106.752 59.0568 105.938 60.0936 105.01C61.1865 104.033 62.2906 102.657 63.3725 100.966L60.0035 98.8099C59.0374 100.319 58.1575 101.375 57.4264 102.03C56.6392 102.734 56.2749 102.752 56.312 102.752V106.752ZM63.3725 100.966C65.5147 97.619 67.6178 93.1342 69.9193 87.892L66.2567 86.284C63.9502 91.5378 61.9573 95.757 60.0035 98.8099L63.3725 100.966ZM66.1034 87.3361C66.1668 87.8426 66.2475 88.3899 66.387 88.8365C66.454 89.0507 66.5849 89.415 66.854 89.7593C67.1636 90.1556 67.7494 90.624 68.6 90.624V86.624C68.9201 86.624 69.2289 86.7088 69.4954 86.8597C69.7473 87.0024 69.9108 87.1748 70.006 87.2967C70.1751 87.513 70.218 87.6853 70.205 87.6434C70.1845 87.5781 70.1372 87.3574 70.0726 86.8399L66.1034 87.3361ZM68.6 90.624C69.134 90.624 69.5461 90.4322 69.7916 90.284C70.0417 90.133 70.2351 89.9573 70.3698 89.8205C70.6365 89.5499 70.875 89.2233 71.0773 88.9225C71.4906 88.3084 71.9893 87.4417 72.5646 86.425C73.7393 84.3493 75.3793 81.3844 77.7184 77.6546L74.3296 75.5294C71.9327 79.3516 70.2447 82.4027 69.0834 84.455C68.4907 85.5023 68.0694 86.2276 67.7587 86.6895C67.685 86.799 67.6263 86.8803 67.5812 86.9388C67.5343 86.9995 67.5148 87.0189 67.5207 87.0129C67.5248 87.0088 67.5418 86.9918 67.5715 86.9671C67.6006 86.943 67.6517 86.9035 67.7243 86.8597C67.8549 86.7808 68.162 86.624 68.6 86.624V90.624ZM77.7253 77.6434C81.1844 72.046 87.2402 63.7971 93.0131 56.5412C95.8941 52.9201 98.6854 49.5705 101.025 46.9445C103.427 44.2491 105.198 42.4965 106.083 41.8895L103.821 38.5905C102.466 39.5195 100.381 41.6549 98.0388 44.2835C95.6346 46.9815 92.7939 50.3919 89.8829 54.0508C84.0718 61.3549 77.9036 69.746 74.3227 75.5406L77.7253 77.6434ZM106.09 41.8844C109.499 39.5244 112.178 37.2574 114.094 35.2046L111.17 32.4754C109.502 34.2626 107.061 36.3476 103.814 38.5956L106.09 41.8844ZM110.671 33.4478C110.548 34.0599 110.43 34.5624 110.328 35.0221C110.279 35.2415 110.231 35.4654 110.195 35.669C110.162 35.8517 110.12 36.1214 110.12 36.4H114.12C114.12 36.4866 114.11 36.5003 114.133 36.367C114.153 36.2546 114.185 36.1025 114.232 35.8899C114.322 35.4855 114.46 34.9 114.593 34.2322L110.671 33.4478ZM110.12 36.4C110.12 37.073 110.368 37.8098 111 38.3364C111.567 38.8096 112.207 38.912 112.632 38.912V34.912C112.801 34.912 113.185 34.9504 113.56 35.2635C114 35.6302 114.12 36.111 114.12 36.4H110.12ZM113.526 38.7008L117.11 36.9088L115.322 33.3311L111.738 35.1231L113.526 38.7008ZM114.216 35.12V35.632H118.216V35.12H114.216ZM114.216 35.632C114.216 36.0107 114.242 36.6277 114.507 37.2116C114.655 37.5376 114.911 37.926 115.342 38.2268C115.789 38.538 116.282 38.656 116.728 38.656V34.656C116.982 34.656 117.315 34.726 117.63 34.9452C117.929 35.154 118.081 35.4064 118.149 35.5564C118.183 35.6314 118.201 35.6905 118.21 35.7247C118.219 35.7594 118.222 35.7791 118.222 35.7792C118.222 35.7797 118.22 35.768 118.219 35.7415C118.217 35.7153 118.216 35.6793 118.216 35.632H114.216ZM116.728 38.656C117.328 38.656 117.795 38.4033 117.943 38.3226C118.17 38.1986 118.382 38.0504 118.559 37.9154C118.92 37.6407 119.301 37.2955 119.646 36.9502C119.994 36.602 120.346 36.2147 120.64 35.8406C120.883 35.5309 121.258 35.0228 121.441 34.4725L117.647 33.2075C117.688 33.0843 117.723 33.0451 117.678 33.1162C117.644 33.1699 117.585 33.2544 117.496 33.3674C117.318 33.5933 117.078 33.862 116.818 34.1218C116.555 34.3845 116.312 34.5993 116.137 34.7326C116.046 34.8016 116.012 34.8194 116.028 34.8104C116.037 34.8054 116.09 34.7769 116.178 34.7461C116.251 34.7202 116.45 34.656 116.728 34.656V38.656ZM117.564 33.5571L117.308 35.3491L121.268 35.9148L121.524 34.1228L117.564 33.5571ZM120.302 37.3559L124.654 34.7959L122.626 31.3481L118.274 33.9081L120.302 37.3559ZM121.812 32.2597L120.788 34.5637L124.444 36.1883L125.468 33.8843L121.812 32.2597ZM123.763 37.0145C124.354 36.6009 124.834 36.3131 125.199 36.1363C125.613 35.9363 125.698 35.968 125.56 35.968V31.968C124.782 31.968 124.035 32.2557 123.457 32.5357C122.83 32.8388 122.158 33.2551 121.469 33.7375L123.763 37.0145ZM125.56 35.968C125.148 35.968 124.852 35.7939 124.702 35.6684C124.632 35.609 124.589 35.5576 124.569 35.5302C124.558 35.5156 124.55 35.5046 124.546 35.498C124.544 35.4946 124.543 35.492 124.542 35.4904C124.541 35.4896 124.541 35.489 124.541 35.4886C124.54 35.4882 124.54 35.488 124.54 35.488C124.54 35.488 124.54 35.4882 124.541 35.4885C124.541 35.4889 124.541 35.4894 124.541 35.4901C124.542 35.4916 124.543 35.4936 124.544 35.4963C124.547 35.5017 124.55 35.509 124.553 35.518C124.56 35.5368 124.567 35.5588 124.573 35.5822C124.586 35.6373 124.584 35.6588 124.584 35.632H128.584C128.584 34.9855 128.408 34.2514 128.084 33.632C127.815 33.1188 127.044 31.968 125.56 31.968V35.968ZM124.584 35.632C124.584 35.6161 124.57 35.8533 124.221 36.468C123.896 37.0406 123.393 37.7476 122.707 38.6204L125.853 41.0916C126.575 40.1724 127.224 39.2794 127.699 38.444C128.15 37.6507 128.584 36.6719 128.584 35.632H124.584ZM122.68 38.656C121.978 39.5914 120.714 41.0098 118.086 43.9462C115.492 46.844 111.646 51.139 105.878 57.74L108.89 60.372C114.642 53.789 118.476 49.5079 121.066 46.6138C123.622 43.7582 125.046 42.1686 125.88 41.056L122.68 38.656ZM105.887 57.7294C103.317 60.6295 96.4732 69.6419 89.8032 78.7373C83.1353 87.8298 76.475 97.2314 74.3009 100.921L77.7471 102.951C79.797 99.4726 86.3207 90.2502 93.0288 81.1027C99.7349 71.9581 106.459 63.1145 108.881 60.3826L105.887 57.7294ZM74.3018 100.919L66.3658 114.359L69.8102 116.393L77.7462 102.953L74.3018 100.919ZM66.373 114.347C64.638 117.239 63.2405 119.589 62.1277 121.401C60.9941 123.248 60.2315 124.408 59.7561 124.99L62.8519 127.522C63.5285 126.696 64.4299 125.296 65.5363 123.495C66.6635 121.659 68.082 119.273 69.803 116.405L66.373 114.347ZM59.7561 124.99C58.6949 126.286 57.3959 127.586 55.8606 128.767L58.2994 131.937C60.0921 130.558 61.6091 129.042 62.8519 127.522L59.7561 124.99ZM58.0513 128.604L56.8993 127.964L54.9567 131.46L56.1087 132.1L58.0513 128.604ZM54.868 128.016L53.844 128.656L55.964 132.048L56.988 131.408L54.868 128.016ZM53.4174 129.014L52.2654 130.294L55.2386 132.97L56.3906 131.69L53.4174 129.014Z" fill="#20CD8D" mask="url(#path-2-outside-1_55_3)"/>
</svg>
